<svg width="180" height="180" viewBox="0 0 180 180" fill="none" xmlns="http://www.w3.org/2000/svg">
  <defs>
    <linearGradient id="bg" x1="24" y1="20" x2="158" y2="164" gradientUnits="userSpaceOnUse">
      <stop stop-color="#101C34"/>
      <stop offset="0.45" stop-color="#120E2A"/>
      <stop offset="1" stop-color="#050713"/>
    </linearGradient>
    <linearGradient id="mark" x1="48" y1="42" x2="137" y2="137" gradientUnits="userSpaceOnUse">
      <stop stop-color="#7C3AED"/>
      <stop offset="0.48" stop-color="#38BDF8"/>
      <stop offset="1" stop-color="#34D399"/>
    </linearGradient>
    <filter id="glow" x="-30%" y="-30%" width="160%" height="160%" color-interpolation-filters="sRGB">
      <feDropShadow dx="0" dy="0" stdDeviation="6" flood-color="#7C3AED" flood-opacity="0.9"/>
      <feDropShadow dx="0" dy="0" stdDeviation="3" flood-color="#38BDF8" flood-opacity="0.8"/>
    </filter>
  </defs>
  <rect x="13" y="13" width="154" height="154" rx="38" fill="url(#bg)"/>
  <rect x="20" y="20" width="140" height="140" rx="32" stroke="#7C3AED" stroke-opacity="0.7" stroke-width="4"/>
  <path d="M46 48L82 132L98 100L130 126L113 72L96 92L82 60L70 87L58 52L46 48Z" fill="url(#mark)" filter="url(#glow)"/>
  <path d="M105 56L137 72L119 88L105 56Z" fill="#38BDF8" filter="url(#glow)"/>
  <path d="M50 45L83 122L97 94L124 116" stroke="#E0F2FE" stroke-opacity="0.75" stroke-width="6" stroke-linecap="round" stroke-linejoin="round"/>
</svg>
